<svg width="140" height="140" viewBox="0 0 140 140" fill="none" xmlns="http://www.w3.org/2000/svg">
<g clip-path="url(#clip0_2_2)">
<mask id="mask0_2_2" style="mask-type:luminance" maskUnits="userSpaceOnUse" x="0" y="0" width="140" height="140">
<path d="M140 0H0V140H140V0Z" fill="white"/>
</mask>
<g mask="url(#mask0_2_2)">
<path d="M0 69.9181C0 12.5099 12.5099 0 69.9181 0C127.326 0 139.836 12.5099 139.836 69.9181C139.836 127.326 127.326 139.836 69.9181 139.836C12.5099 139.836 0 127.33 0 69.9181Z" fill="#4A7EBB"/>
<path fill-rule="evenodd" clip-rule="evenodd" d="M99.9937 57.2036C108.3 57.2036 115.029 63.9375 115.029 72.2393C115.029 80.541 108.295 87.275 99.9937 87.275C91.692 87.275 84.9581 94.0089 84.9581 102.311C84.9581 110.612 78.2241 117.346 69.9224 117.346C61.6206 117.346 54.8867 110.612 54.8867 102.311C54.8867 94.0089 61.6206 87.275 69.9224 87.275C78.2241 87.275 84.9581 80.541 84.9581 72.2393C84.9581 63.9375 91.692 57.2036 99.9937 57.2036Z" fill="#F4A367"/>
<path fill-rule="evenodd" clip-rule="evenodd" d="M69.9176 27.1323C78.2234 27.1323 84.9532 33.8662 84.9532 42.168C84.9532 50.4698 78.2193 57.2037 69.9176 57.2037C61.6158 57.2037 54.8819 63.9376 54.8819 72.2393C54.8819 80.5411 48.148 87.275 39.8462 87.275C31.5445 87.275 24.8105 80.5411 24.8105 72.2393C24.8105 63.9376 31.5445 57.2037 39.8462 57.2037C48.148 57.2037 54.8819 50.4698 54.8819 42.168C54.8819 33.8662 61.6158 27.1323 69.9176 27.1323Z" fill="#F4A367"/>
<path fill-rule="evenodd" clip-rule="evenodd" d="M39.8458 52.7986C45.7201 52.7986 50.4768 48.0378 50.4768 42.1676C50.4768 36.2974 45.716 31.5366 39.8458 31.5366C33.9757 31.5366 29.2148 36.2974 29.2148 42.1676C29.2148 48.0378 33.9757 52.7986 39.8458 52.7986ZM99.9926 52.7986C105.867 52.7986 110.624 48.0378 110.624 42.1676C110.624 36.2974 105.863 31.5366 99.9926 31.5366C94.1224 31.5366 89.3616 36.2974 89.3616 42.1676C89.3616 48.0378 94.1224 52.7986 99.9926 52.7986ZM69.9172 61.608C64.0429 61.608 59.2862 66.3688 59.2862 72.239C59.2862 78.1091 64.047 82.87 69.9172 82.87C75.7874 82.87 80.5482 78.1091 80.5482 72.239C80.5482 66.3688 75.7874 61.608 69.9172 61.608ZM39.8458 112.945C45.7201 112.945 50.4768 108.185 50.4768 102.314C50.4768 96.4442 45.716 91.6834 39.8458 91.6834C33.9757 91.6834 29.2148 96.4442 29.2148 102.314C29.2148 108.185 33.9757 112.945 39.8458 112.945ZM99.9926 112.945C105.867 112.945 110.624 108.185 110.624 102.314C110.624 96.4442 105.863 91.6834 99.9926 91.6834C94.1224 91.6834 89.3616 96.4442 89.3616 102.314C89.3616 108.185 94.1224 112.945 99.9926 112.945Z" fill="white"/>
</g>
</g>
<defs>
<clipPath id="clip0_2_2">
<rect width="140" height="140" fill="white"/>
</clipPath>
</defs>
</svg>
