<svg width="140" height="140" viewBox="0 0 140 140" fill="none" xmlns="http://www.w3.org/2000/svg">
<g clip-path="url(#clip0_13_69)">
<path d="M0 69.9181C0 12.5099 12.5099 0 69.9181 0C127.326 0 139.836 12.5099 139.836 69.9181C139.836 127.326 127.326 139.836 69.9181 139.836C12.5099 139.836 0 127.33 0 69.9181Z" fill="#1F2937"/>
<path fill-rule="evenodd" clip-rule="evenodd" d="M99.9935 57.2036C108.299 57.2036 115.029 63.9375 115.029 72.2393C115.029 80.541 108.295 87.275 99.9935 87.275C91.6917 87.275 84.9578 94.0089 84.9578 102.311C84.9578 110.612 78.2239 117.346 69.9221 117.346C61.6204 117.346 54.8865 110.612 54.8865 102.311C54.8865 94.0089 61.6204 87.275 69.9221 87.275C78.2239 87.275 84.9578 80.541 84.9578 72.2393C84.9578 63.9375 91.6917 57.2036 99.9935 57.2036Z" fill="#F4A367"/>
<path fill-rule="evenodd" clip-rule="evenodd" d="M69.9181 27.1321C78.2239 27.1321 84.9537 33.866 84.9537 42.1678C84.9537 50.4695 78.2198 57.2034 69.9181 57.2034C61.6163 57.2034 54.8824 63.9373 54.8824 72.2391C54.8824 80.5409 48.1485 87.2748 39.8467 87.2748C31.545 87.2748 24.811 80.5409 24.811 72.2391C24.811 63.9373 31.545 57.2034 39.8467 57.2034C48.1485 57.2034 54.8824 50.4695 54.8824 42.1678C54.8824 33.866 61.6163 27.1321 69.9181 27.1321Z" fill="#F4A367"/>
<path fill-rule="evenodd" clip-rule="evenodd" d="M39.8468 52.7989C45.7211 52.7989 50.4778 48.038 50.4778 42.1679C50.4778 36.2977 45.717 31.5369 39.8468 31.5369C33.9766 31.5369 29.2158 36.2977 29.2158 42.1679C29.2158 48.038 33.9766 52.7989 39.8468 52.7989ZM99.9936 52.7989C105.868 52.7989 110.625 48.038 110.625 42.1679C110.625 36.2977 105.864 31.5369 99.9936 31.5369C94.1234 31.5369 89.3626 36.2977 89.3626 42.1679C89.3626 48.038 94.1234 52.7989 99.9936 52.7989ZM69.9182 61.6082C64.0439 61.6082 59.2872 66.369 59.2872 72.2392C59.2872 78.1094 64.048 82.8702 69.9182 82.8702C75.7883 82.8702 80.5492 78.1094 80.5492 72.2392C80.5492 66.369 75.7883 61.6082 69.9182 61.6082ZM39.8468 112.946C45.7211 112.946 50.4778 108.185 50.4778 102.315C50.4778 96.4445 45.717 91.6836 39.8468 91.6836C33.9766 91.6836 29.2158 96.4445 29.2158 102.315C29.2158 108.185 33.9766 112.946 39.8468 112.946ZM99.9936 112.946C105.868 112.946 110.625 108.185 110.625 102.315C110.625 96.4445 105.864 91.6836 99.9936 91.6836C94.1234 91.6836 89.3626 96.4445 89.3626 102.315C89.3626 108.185 94.1234 112.946 99.9936 112.946Z" fill="white"/>
</g>
<defs>
<clipPath id="clip0_13_69">
<rect width="140" height="140" fill="white"/>
</clipPath>
</defs>
</svg>
