<svg width="23" height="23" viewBox="0 0 23 23" fill="none" xmlns="http://www.w3.org/2000/svg">
<path fill-rule="evenodd" clip-rule="evenodd" d="M20.4444 0C21.1222 0 21.7722 0.269245 22.2515 0.748505C22.7308 1.22776 23 1.87778 23 2.55556V20.4444C23 21.1222 22.7308 21.7722 22.2515 22.2515C21.7722 22.7308 21.1222 23 20.4444 23H2.55556C1.87778 23 1.22776 22.7308 0.748505 22.2515C0.269245 21.7722 0 21.1222 0 20.4444V2.55556C0 1.87778 0.269245 1.22776 0.748505 0.748505C1.22776 0.269245 1.87778 0 2.55556 0H20.4444ZM16.6111 14.0556H14.0556C13.7167 14.0556 13.3917 14.1902 13.152 14.4298C12.9124 14.6694 12.7778 14.9944 12.7778 15.3333C12.7778 15.6722 12.9124 15.9972 13.152 16.2369C13.3917 16.4765 13.7167 16.6111 14.0556 16.6111H16.6111C16.95 16.6111 17.275 16.4765 17.5146 16.2369C17.7543 15.9972 17.8889 15.6722 17.8889 15.3333C17.8889 14.9944 17.7543 14.6694 17.5146 14.4298C17.275 14.1902 16.95 14.0556 16.6111 14.0556ZM7.73056 6.98306C7.50061 6.75389 7.19206 6.62084 6.86757 6.61093C6.54307 6.60102 6.22698 6.715 5.98348 6.92971C5.73998 7.14442 5.58733 7.44376 5.55655 7.76694C5.52576 8.09012 5.61914 8.4129 5.81772 8.66972L5.92378 8.78983L8.63394 11.5L5.92506 14.2102C5.69345 14.4396 5.55829 14.7488 5.54724 15.0746C5.53618 15.4004 5.65007 15.7182 5.86559 15.9627C6.08112 16.2073 6.38197 16.3603 6.70657 16.3903C7.03118 16.4203 7.35499 16.3252 7.61172 16.1243L7.73056 16.0182L11.3454 12.4034C11.5654 12.1834 11.6976 11.8906 11.7171 11.5801C11.7366 11.2696 11.6422 10.9626 11.4514 10.7167L11.3454 10.5966L7.73056 6.98306Z" fill="#1F2937"/>
</svg>
